<?xml version="1.0" encoding="utf-8"?> <!-- Generator: Adobe Illustrator 18.0.0, SVG Export Plug-In . SVG Version: 6.00 Build 0) --> <!DOCTYPE svg PUBLIC "-//W3C//DTD SVG 1.1//EN" "http://www.w3.org/Graphics/SVG/1.1/DTD/svg11.dtd"> <svg version="1.1" xmlns="http://www.w3.org/2000/svg" xmlns:xlink="http://www.w3.org/1999/xlink" x="0px" y="0px" viewBox="0 0 500 500" enable-background="new 0 0 500 500" xml:space="preserve"> <g id="C"> <g> <circle fill="#2980B9" cx="383" cy="250" r="100"/> <g> <path fill="#FFFFFF" d="M416.2,291c-4.2,2.1-12.5,4.2-23.1,4.2c-24.7,0-43.3-15.6-43.3-44.3c0-27.4,18.6-46,45.8-46 c10.9,0,17.8,2.3,20.8,3.9l-2.7,9.2c-4.3-2.1-10.4-3.6-17.7-3.6c-20.5,0-34.2,13.1-34.2,36.1c0,21.5,12.4,35.2,33.7,35.2 c6.9,0,13.9-1.4,18.5-3.6L416.2,291z"/> </g> </g> </g> <g id="D"> <g> <circle fill="#2C3E50" cx="117" cy="250" r="100"/> <g> <path fill="#FFFFFF" d="M81.1,207.3c6.9-1,15.1-1.8,24.1-1.8c16.3,0,27.8,3.8,35.5,10.9c7.8,7.2,12.4,17.3,12.4,31.5 c0,14.3-4.4,26-12.6,34.1c-8.2,8.2-21.7,12.6-38.7,12.6c-8.1,0-14.8-0.4-20.5-1V207.3z M92.4,284.8c2.9,0.5,7,0.7,11.4,0.7 c24.2,0,37.3-13.5,37.3-37.2c0.1-20.7-11.6-33.8-35.5-33.8c-5.9,0-10.3,0.5-13.3,1.2V284.8z"/> </g> </g> </g> <g id="B"> <g> <circle fill="#16A085" cx="250" cy="400" r="100"/> <g> <path fill="#FFFFFF" d="M222.4,357.3c4.9-1,12.7-1.8,20.7-1.8c11.3,0,18.6,2,24.1,6.4c4.6,3.4,7.3,8.6,7.3,15.5 c0,8.5-5.6,15.9-14.8,19.2v0.3c8.3,2.1,18.1,9,18.1,22c0,7.5-3,13.3-7.4,17.6c-6.1,5.6-16,8.2-30.3,8.2c-7.8,0-13.8-0.5-17.6-1 V357.3z M233.7,393.2H244c12,0,19-6.2,19-14.7c0-10.3-7.8-14.3-19.2-14.3c-5.2,0-8.2,0.4-10,0.8V393.2z M233.7,435.2 c2.2,0.4,5.5,0.5,9.5,0.5c11.7,0,22.5-4.3,22.5-17c0-12-10.3-16.9-22.6-16.9h-9.4V435.2z"/> </g> </g> </g> <g id="A"> <g> <circle fill="#8E44AD" cx="250" cy="100" r="100"/> <g> <path fill="#FFFFFF" d="M234.1,116.3l-9.1,27.6h-11.7l29.8-87.6h13.7l29.9,87.6h-12.1l-9.4-27.6H234.1z M262.9,107.4l-8.6-25.2 c-2-5.7-3.3-10.9-4.6-16h-0.3c-1.3,5.2-2.7,10.5-4.4,15.9l-8.6,25.4H262.9z"/> </g> </g> </g> </svg>
