<?xml version="1.0" encoding="UTF-8" standalone="no"?>
<!-- Created with Inkscape (http://www.inkscape.org/) -->

<svg
   xmlns:dc="http://purl.org/dc/elements/1.1/"
   xmlns:cc="http://creativecommons.org/ns#"
   xmlns:rdf="http://www.w3.org/1999/02/22-rdf-syntax-ns#"
   xmlns:svg="http://www.w3.org/2000/svg"
   xmlns="http://www.w3.org/2000/svg"
   xmlns:sodipodi="http://sodipodi.sourceforge.net/DTD/sodipodi-0.dtd"
   xmlns:inkscape="http://www.inkscape.org/namespaces/inkscape"
   width="200.74632mm"
   height="41.912842mm"
   viewBox="0 0 711.30587 148.51007"
   id="svg2"
   version="1.1"
   inkscape:version="0.92.2 (5c3e80d, 2017-08-06)"
   sodipodi:docname="2.svg">
  <defs
     id="defs4" />
  <sodipodi:namedview
     id="base"
     pagecolor="#ffffff"
     bordercolor="#666666"
     borderopacity="1.0"
     inkscape:pageopacity="0.0"
     inkscape:pageshadow="2"
     inkscape:zoom="0.35"
     inkscape:cx="236.36721"
     inkscape:cy="-358.63278"
     inkscape:document-units="px"
     inkscape:current-layer="layer1"
     showgrid="false"
     fit-margin-top="0"
     fit-margin-left="0"
     fit-margin-right="0"
     fit-margin-bottom="0"
     inkscape:window-width="1600"
     inkscape:window-height="838"
     inkscape:window-x="-8"
     inkscape:window-y="-8"
     inkscape:window-maximized="1" />
  <metadata
     id="metadata7">
    <rdf:RDF>
      <cc:Work
         rdf:about="">
        <dc:format>image/svg+xml</dc:format>
        <dc:type
           rdf:resource="http://purl.org/dc/dcmitype/StillImage" />
        <dc:title></dc:title>
      </cc:Work>
    </rdf:RDF>
  </metadata>
  <g
     inkscape:label="Calque 1"
     inkscape:groupmode="layer"
     id="layer1"
     transform="translate(-18.63279,-25.219355)">
    <path
       sodipodi:type="star"
       style="opacity:0.99;fill:#d24f00;fill-opacity:1;fill-rule:evenodd;stroke:#000000;stroke-width:0;stroke-miterlimit:4;stroke-dasharray:none;stroke-dashoffset:0;stroke-opacity:1"
       id="path4138"
       sodipodi:sides="8"
       sodipodi:cx="370"
       sodipodi:cy="379.50507"
       sodipodi:r1="375.35977"
       sodipodi:r2="187.67989"
       sodipodi:arg1="1.1441688"
       sodipodi:arg2="1.5368679"
       inkscape:flatsided="false"
       inkscape:rounded="0"
       inkscape:randomized="0"
       d="M 525.32499,721.22001 376.36646,567.07694 238.2024,730.96538 241.86842,516.64018 28.285052,534.83006 182.42813,385.87153 18.539689,247.70746 232.86489,251.37349 214.67501,37.790118 363.63354,191.93319 501.7976,28.044755 498.13158,242.36995 711.71495,224.18008 557.57187,373.1386 721.46031,511.30267 507.13511,507.63664 Z"
       transform="matrix(0.03267292,0.0663066,0.07224244,-0.02998833,8.9528193,39.446668)" />
    <path
       transform="matrix(0.03267292,0.0663066,0.07224244,-0.02998833,159.46099,39.446668)"
       d="M 525.32499,721.22001 376.36646,567.07694 238.2024,730.96538 241.86842,516.64018 28.285052,534.83006 182.42813,385.87153 18.539689,247.70746 232.86489,251.37349 214.67501,37.790118 363.63354,191.93319 501.7976,28.044755 498.13158,242.36995 711.71495,224.18008 557.57187,373.1386 721.46031,511.30267 507.13511,507.63664 Z"
       inkscape:randomized="0"
       inkscape:rounded="0"
       inkscape:flatsided="false"
       sodipodi:arg2="1.5368679"
       sodipodi:arg1="1.1441688"
       sodipodi:r2="187.67989"
       sodipodi:r1="375.35977"
       sodipodi:cy="379.50507"
       sodipodi:cx="370"
       sodipodi:sides="8"
       id="path4140"
       style="opacity:0.99;fill:#d24f00;fill-opacity:1;fill-rule:evenodd;stroke:#000000;stroke-width:0;stroke-miterlimit:4;stroke-dasharray:none;stroke-dashoffset:0;stroke-opacity:1"
       sodipodi:type="star" />
    <path
       sodipodi:type="star"
       style="opacity:0.99;fill:#d24f00;fill-opacity:1;fill-rule:evenodd;stroke:#000000;stroke-width:0;stroke-miterlimit:4;stroke-dasharray:none;stroke-dashoffset:0;stroke-opacity:1"
       id="path4142"
       sodipodi:sides="8"
       sodipodi:cx="370"
       sodipodi:cy="379.50507"
       sodipodi:r1="375.35977"
       sodipodi:r2="187.67989"
       sodipodi:arg1="1.1441688"
       sodipodi:arg2="1.5368679"
       inkscape:flatsided="false"
       inkscape:rounded="0"
       inkscape:randomized="0"
       d="M 525.32499,721.22001 376.36646,567.07694 238.2024,730.96538 241.86842,516.64018 28.285052,534.83006 182.42813,385.87153 18.539689,247.70746 232.86489,251.37349 214.67501,37.790118 363.63354,191.93319 501.7976,28.044755 498.13158,242.36995 711.71495,224.18008 557.57187,373.1386 721.46031,511.30267 507.13511,507.63664 Z"
       transform="matrix(0.03267292,0.0663066,0.07224244,-0.02998833,84.206896,39.446668)" />
    <path
       sodipodi:type="star"
       style="opacity:0.99;fill:#d24f00;fill-opacity:1;fill-rule:evenodd;stroke:#000000;stroke-width:0;stroke-miterlimit:4;stroke-dasharray:none;stroke-dashoffset:0;stroke-opacity:1"
       id="path4152"
       sodipodi:sides="8"
       sodipodi:cx="370"
       sodipodi:cy="379.50507"
       sodipodi:r1="375.35977"
       sodipodi:r2="187.67989"
       sodipodi:arg1="1.1441688"
       sodipodi:arg2="1.5368679"
       inkscape:flatsided="false"
       inkscape:rounded="0"
       inkscape:randomized="0"
       d="M 525.32499,721.22001 376.36646,567.07694 238.2024,730.96538 241.86842,516.64018 28.285052,534.83006 182.42813,385.87153 18.539689,247.70746 232.86489,251.37349 214.67501,37.790118 363.63354,191.93319 501.7976,28.044755 498.13158,242.36995 711.71495,224.18008 557.57187,373.1386 721.46031,511.30267 507.13511,507.63664 Z"
       transform="matrix(0.03267292,0.0663066,0.07224244,-0.02998833,234.71505,39.446668)" />
  </g>
</svg>
