<?xml version="1.0" encoding="UTF-8" standalone="no"?>
<!-- Created with Inkscape (http://www.inkscape.org/) -->

<svg
   xmlns:dc="http://purl.org/dc/elements/1.1/"
   xmlns:cc="http://creativecommons.org/ns#"
   xmlns:rdf="http://www.w3.org/1999/02/22-rdf-syntax-ns#"
   xmlns:svg="http://www.w3.org/2000/svg"
   xmlns="http://www.w3.org/2000/svg"
   xmlns:sodipodi="http://sodipodi.sourceforge.net/DTD/sodipodi-0.dtd"
   xmlns:inkscape="http://www.inkscape.org/namespaces/inkscape"
   width="209.02084mm"
   height="49.136909mm"
   viewBox="0 0 209.02084 49.136909"
   version="1.1"
   id="svg48"
   inkscape:version="0.92.2 (5c3e80d, 2017-08-06)"
   sodipodi:docname="palette1.svg">
  <defs
     id="defs42">
    <inkscape:perspective
       sodipodi:type="inkscape:persp3d"
       inkscape:vp_x="0 : 148.49999 : 1"
       inkscape:vp_y="0 : 999.99993 : 0"
       inkscape:vp_z="210 : 148.49999 : 1"
       inkscape:persp3d-origin="105 : 98.999993 : 1"
       id="perspective52" />
  </defs>
  <sodipodi:namedview
     id="base"
     pagecolor="#ffffff"
     bordercolor="#666666"
     borderopacity="1.0"
     inkscape:pageopacity="0.0"
     inkscape:pageshadow="2"
     inkscape:zoom="0.35"
     inkscape:cx="-131.42859"
     inkscape:cy="534.28572"
     inkscape:document-units="mm"
     inkscape:current-layer="layer1"
     showgrid="false"
     fit-margin-top="0"
     fit-margin-left="0"
     fit-margin-right="0"
     fit-margin-bottom="0"
     inkscape:window-width="1366"
     inkscape:window-height="705"
     inkscape:window-x="-8"
     inkscape:window-y="-8"
     inkscape:window-maximized="1" />
  <metadata
     id="metadata45">
    <rdf:RDF>
      <cc:Work
         rdf:about="">
        <dc:format>image/svg+xml</dc:format>
        <dc:type
           rdf:resource="http://purl.org/dc/dcmitype/StillImage" />
        <dc:title></dc:title>
      </cc:Work>
    </rdf:RDF>
  </metadata>
  <g
     inkscape:label="Calque 1"
     inkscape:groupmode="layer"
     id="layer1"
     transform="translate(-0.75595093,0.84524155)">
    <path
       style="fill:#ff7f2a;stroke-width:0.24990965"
       id="path93"
       sodipodi:type="arc"
       sodipodi:cx="35.151783"
       sodipodi:cy="23.345236"
       sodipodi:rx="34.395832"
       sodipodi:ry="24.190477"
       sodipodi:start="0"
       sodipodi:end="6.0213859"
       sodipodi:open="true"
       d="M 69.547615,23.345236 A 34.395832,24.190477 0 0 1 37.401378,47.48392 34.395832,24.190477 0 0 1 1.0502121,26.502727 34.395832,24.190477 0 0 1 28.441489,-0.38042824 34.395832,24.190477 0 0 1 68.375605,17.084279" />
    <path
       style="fill:#ff7f2a;stroke-width:0.26458332"
       id="path114"
       sodipodi:type="arc"
       sodipodi:cx="56.69643"
       sodipodi:cy="47.913689"
       sodipodi:rx="1.5119048"
       sodipodi:ry="0.37797621"
       sodipodi:start="0"
       sodipodi:end="6.0213859"
       sodipodi:open="true"
       d="m 58.208335,47.913689 a 1.5119048,0.37797621 0 0 1 -1.413021,0.377167 1.5119048,0.37797621 0 0 1 -1.597854,-0.327832 1.5119048,0.37797621 0 0 1 1.204012,-0.420049 1.5119048,0.37797621 0 0 1 1.755346,0.272886" />
    <path
       style="fill:#ff7f2a;stroke-width:0.25534311"
       id="path93-2"
       sodipodi:type="arc"
       sodipodi:cx="104.32142"
       sodipodi:cy="24.101191"
       sodipodi:rx="35.907738"
       sodipodi:ry="24.190477"
       sodipodi:start="0"
       sodipodi:end="6.0213859"
       sodipodi:open="true"
       d="M 140.22916,24.101191 A 35.907738,24.190477 0 0 1 106.6699,48.239874 35.907738,24.190477 0 0 1 68.720877,27.258682 35.907738,24.190477 0 0 1 97.316166,0.3755265 35.907738,24.190477 0 0 1 139.00563,17.840234" />
    <path
       style="fill:#ff7f2a;stroke-width:0.25534311"
       id="path93-1"
       sodipodi:type="arc"
       sodipodi:cx="173.86905"
       sodipodi:cy="23.34524"
       sodipodi:rx="35.907738"
       sodipodi:ry="24.190477"
       sodipodi:start="0"
       sodipodi:end="6.0213859"
       sodipodi:open="true"
       d="M 209.77679,23.34524 A 35.907738,24.190477 0 0 1 176.21753,47.483923 35.907738,24.190477 0 0 1 138.26851,26.502731 35.907738,24.190477 0 0 1 166.8638,-0.38042442 35.907738,24.190477 0 0 1 208.55326,17.084283" />
  </g>
</svg>
