<?xml version="1.0" encoding="UTF-8" standalone="no"?>
<!-- Created with Inkscape (http://www.inkscape.org/) -->

<svg
   xmlns:dc="http://purl.org/dc/elements/1.1/"
   xmlns:cc="http://creativecommons.org/ns#"
   xmlns:rdf="http://www.w3.org/1999/02/22-rdf-syntax-ns#"
   xmlns:svg="http://www.w3.org/2000/svg"
   xmlns="http://www.w3.org/2000/svg"
   xmlns:sodipodi="http://sodipodi.sourceforge.net/DTD/sodipodi-0.dtd"
   xmlns:inkscape="http://www.inkscape.org/namespaces/inkscape"
   width="210mm"
   height="297mm"
   viewBox="0 0 210 297"
   version="1.1"
   id="svg8"
   sodipodi:docname="dessin.svg"
   inkscape:version="0.92.2 (5c3e80d, 2017-08-06)">
  <defs
     id="defs2" />
  <sodipodi:namedview
     id="base"
     pagecolor="#ffffff"
     bordercolor="#666666"
     borderopacity="1.0"
     inkscape:pageopacity="0.0"
     inkscape:pageshadow="2"
     inkscape:zoom="0.49497475"
     inkscape:cx="255.71429"
     inkscape:cy="419.13019"
     inkscape:document-units="mm"
     inkscape:current-layer="layer1"
     showgrid="false"
     inkscape:window-width="1366"
     inkscape:window-height="705"
     inkscape:window-x="-8"
     inkscape:window-y="-8"
     inkscape:window-maximized="1" />
  <metadata
     id="metadata5">
    <rdf:RDF>
      <cc:Work
         rdf:about="">
        <dc:format>image/svg+xml</dc:format>
        <dc:type
           rdf:resource="http://purl.org/dc/dcmitype/StillImage" />
        <dc:title></dc:title>
      </cc:Work>
    </rdf:RDF>
  </metadata>
  <g
     inkscape:label="Calque 1"
     inkscape:groupmode="layer"
     id="layer1">
    <ellipse
       style="fill:none;stroke-width:0.26458332"
       id="path14"
       cx="67.619186"
       cy="108.30772"
       rx="19.510675"
       ry="29.399649" />
    <path
       style="fill:#808000;stroke-width:0.3401176"
       id="path38"
       sodipodi:type="arc"
       sodipodi:cx="55.324795"
       sodipodi:cy="106.97137"
       sodipodi:rx="41.426777"
       sodipodi:ry="55.859329"
       sodipodi:start="3.9056629"
       sodipodi:end="3.3943338"
       sodipodi:open="true"
       d="M 25.413587,68.324197 A 41.426777,55.859329 0 0 1 79.939497,62.041656 41.426777,55.859329 0 0 1 91.511983,134.16286 41.426777,55.859329 0 0 1 39.936697,158.83406 41.426777,55.859329 0 0 1 15.214121,93.003241" />
    <path
       style="fill:#ff5555;stroke-width:0.26458332"
       id="path40"
       sodipodi:type="arc"
       sodipodi:cx="114.9259"
       sodipodi:cy="157.75258"
       sodipodi:rx="39.555889"
       sodipodi:ry="39.823158"
       sodipodi:start="3.9056629"
       sodipodi:end="3.3943338"
       sodipodi:open="true"
       d="m 86.365526,130.20029 a 39.555889,39.823158 0 0 1 52.063444,-4.47894 39.555889,39.823158 0 0 1 11.04986,51.41655 39.555889,39.823158 0 0 1 -49.24608,17.58856 39.555889,39.823158 0 0 1 -23.606069,-46.93202" />
    <path
       style="fill:#008080;stroke-width:0.26458332"
       id="path44"
       sodipodi:type="arc"
       sodipodi:cx="153.14543"
       sodipodi:cy="197.843"
       sodipodi:rx="23.252449"
       sodipodi:ry="29.666916"
       sodipodi:start="3.9056629"
       sodipodi:end="3.3943338"
       sodipodi:open="true"
       d="m 136.35656,177.31747 a 23.252449,29.666916 0 0 1 30.60487,-3.33666 23.252449,29.666916 0 0 1 6.49552,38.30361 23.252449,29.666916 0 0 1 -28.94871,13.10288 23.252449,29.666916 0 0 1 -13.87654,-34.96278" />
    <path
       style="fill:#ffaaaa;stroke-width:2.02030516"
       d="M 558.57607,855.52578 C 517.0531,842.24072 490.07873,795.42725 492.68272,741.1692 c 0.91737,-19.11477 1.56862,-21.56341 12.08975,-45.45687 12.87101,-29.23003 23.69165,-42.20679 43.16859,-51.77035 10.52406,-5.16752 13.94665,-5.80588 31.02204,-5.78607 17.13571,0.0199 20.43694,0.64999 30.79938,5.87863 6.7518,3.4068 16.6947,11.15521 23.77131,18.52476 56.57565,58.91766 33.95554,175.09714 -37.72656,193.76795 -14.85959,3.87044 -23.18934,3.69112 -37.23116,-0.80147 z"
       id="path50"
       inkscape:connector-curvature="0"
       transform="scale(0.26458333)" />
  </g>
</svg>
