<?xml version="1.0" encoding="UTF-8" standalone="no"?>
<!-- Created with Inkscape (http://www.inkscape.org/) -->

<svg
   xmlns:dc="http://purl.org/dc/elements/1.1/"
   xmlns:cc="http://creativecommons.org/ns#"
   xmlns:rdf="http://www.w3.org/1999/02/22-rdf-syntax-ns#"
   xmlns:svg="http://www.w3.org/2000/svg"
   xmlns="http://www.w3.org/2000/svg"
   xmlns:sodipodi="http://sodipodi.sourceforge.net/DTD/sodipodi-0.dtd"
   xmlns:inkscape="http://www.inkscape.org/namespaces/inkscape"
   width="210mm"
   height="297mm"
   viewBox="0 0 210 297"
   version="1.1"
   id="svg8"
   inkscape:version="0.92.2 (5c3e80d, 2017-08-06)"
   sodipodi:docname="palette1.svg">
  <defs
     id="defs2">
    <inkscape:perspective
       sodipodi:type="inkscape:persp3d"
       inkscape:vp_x="0 : 148.5 : 1"
       inkscape:vp_y="0 : 1000 : 0"
       inkscape:vp_z="210 : 148.5 : 1"
       inkscape:persp3d-origin="105 : 99 : 1"
       id="perspective3701" />
  </defs>
  <sodipodi:namedview
     id="base"
     pagecolor="#ffffff"
     bordercolor="#666666"
     borderopacity="1.0"
     inkscape:pageopacity="0.0"
     inkscape:pageshadow="2"
     inkscape:zoom="0.41"
     inkscape:cx="400"
     inkscape:cy="560"
     inkscape:document-units="mm"
     inkscape:current-layer="layer1"
     showgrid="false"
     inkscape:window-width="1366"
     inkscape:window-height="706"
     inkscape:window-x="-8"
     inkscape:window-y="-8"
     inkscape:window-maximized="1" />
  <metadata
     id="metadata5">
    <rdf:RDF>
      <cc:Work
         rdf:about="">
        <dc:format>image/svg+xml</dc:format>
        <dc:type
           rdf:resource="http://purl.org/dc/dcmitype/StillImage" />
        <dc:title></dc:title>
      </cc:Work>
    </rdf:RDF>
  </metadata>
  <g
     inkscape:label="Calque 1"
     inkscape:groupmode="layer"
     id="layer1">
    <path
       sodipodi:type="spiral"
       style="fill:#00ffff;fill-rule:evenodd;stroke:#000000;stroke-width:0.26458332"
       id="path3731"
       sodipodi:cx="33.261906"
       sodipodi:cy="36.952381"
       sodipodi:expansion="1"
       sodipodi:revolution="3"
       sodipodi:radius="41.246189"
       sodipodi:argument="-18.129002"
       sodipodi:t0="0"
       d="m 33.261906,36.952381 c 1.553992,1.364481 -1.072609,2.767937 -2.267858,2.582837 -3.23905,-0.50161 -4.017922,-4.558133 -2.897816,-7.118552 2.003607,-4.579987 7.92003,-5.485473 11.969246,-3.212795 5.942388,3.335245 6.992927,11.326234 3.527775,16.81994 C 38.97475,53.346057 28.845255,54.540978 21.922619,49.866565 13.211186,43.984293 11.872571,31.689431 17.764885,23.345237 24.901267,13.2393 39.375302,11.757314 49.136908,18.872524 60.640623,27.257552 62.265839,43.918805 53.9246,55.095241 44.294308,67.998878 25.44073,69.767273 12.851189,60.197912 -1.4538477,49.324596 -3.3654069,28.275242 7.4335381,14.273807 19.548322,-1.4336873 42.795892,-3.4884147 58.208337,8.5411768 75.319073,21.896304 77.51698,47.34388 64.255947,64.16667" />
    <path
       sodipodi:type="spiral"
       style="fill:#ff0000;fill-rule:evenodd;stroke:#000000;stroke-width:0.26458332"
       id="path3731-8"
       sodipodi:cx="108.46329"
       sodipodi:cy="36.58897"
       sodipodi:expansion="1"
       sodipodi:revolution="3"
       sodipodi:radius="41.246189"
       sodipodi:argument="-18.129002"
       sodipodi:t0="0"
       d="m 108.46329,36.58897 c 1.55399,1.364481 -1.07261,2.767937 -2.26786,2.582837 -3.23905,-0.50161 -4.01792,-4.558133 -2.89782,-7.118552 2.00361,-4.579987 7.92003,-5.485472 11.96925,-3.212795 5.94239,3.335245 6.99293,11.326234 3.52777,16.81994 -4.6185,7.322246 -14.74799,8.517167 -21.67063,3.842754 C 88.412568,43.620882 87.073952,31.32602 92.966267,22.981826 100.10265,12.875889 114.57668,11.393903 124.33829,18.509113 135.842,26.894141 137.46722,43.555394 129.12598,54.73183 119.49569,67.635467 100.64211,69.403862 88.05257,59.834501 73.747534,48.961185 71.835975,27.911831 82.63492,13.910396 94.749704,-1.7970982 117.99727,-3.8518257 133.40972,8.1777659 150.52045,21.532893 152.71836,46.98047 139.45733,63.803259"
       transform="matrix(0.92699009,0,0,0.97710233,2.4987756,0.00362351)" />
    <path
       sodipodi:type="spiral"
       style="fill:#241f1c;fill-rule:evenodd;stroke:#000000;stroke-width:0.26458332"
       id="path3731-8-7"
       sodipodi:cx="173.47519"
       sodipodi:cy="36.588963"
       sodipodi:expansion="1"
       sodipodi:revolution="3"
       sodipodi:radius="41.246189"
       sodipodi:argument="-18.129002"
       sodipodi:t0="0"
       d="m 173.47519,36.588963 c 1.55399,1.364481 -1.07261,2.767936 -2.26786,2.582836 -3.23905,-0.50161 -4.01792,-4.558133 -2.89781,-7.118551 2.0036,-4.579988 7.92003,-5.485473 11.96924,-3.212796 5.94239,3.335246 6.99293,11.326234 3.52778,16.81994 -4.61851,7.322246 -14.748,8.517168 -21.67064,3.842754 -8.71143,-5.882272 -10.05005,-18.177134 -4.15773,-26.521328 7.13638,-10.105937 21.61042,-11.587923 31.37202,-4.472713 11.50372,8.385029 13.12893,25.046281 4.78769,36.222717 -9.63029,12.903637 -28.48387,14.672032 -41.07341,5.102671 -14.30503,-10.873316 -16.21659,-31.92267 -5.41765,-45.924105 12.11479,-15.7074939 35.36236,-17.7622213 50.7748,-5.7326297 17.11074,13.3551267 19.30864,38.8027037 6.04761,55.6254937" />
  </g>
</svg>
